<?xml version="1.0" encoding="utf-8"?>
<!-- Generator: Adobe Illustrator 18.0.0, SVG Export Plug-In . SVG Version: 6.00 Build 0)  -->
<!DOCTYPE svg PUBLIC "-//W3C//DTD SVG 1.1//EN" "http://www.w3.org/Graphics/SVG/1.1/DTD/svg11.dtd">
<svg version="1.1" id="Capa_1" xmlns="http://www.w3.org/2000/svg" xmlns:xlink="http://www.w3.org/1999/xlink" x="0px" y="0px"
	 viewBox="581.9 63.6 426.6 560.3" enable-background="new 581.9 63.6 426.6 560.3" xml:space="preserve">
<path fill="#4D9165" d="M893.7,431.2h-197c-9.2,0-16.4,7.2-16.4,16.4v159.7c0,6,3.2,11.4,8.5,14.5c5.6,3,11.8,2.7,17.1-0.6
	l89.2-59.8l89.2,59.8c5.2,3.2,11.5,3.6,17.1,0.6c5.2-3,8.5-8.5,8.5-14.5V447.6C910,438.4,902.9,431.2,893.7,431.2z"/>
<path fill="#FEDB41" d="M795.2,63.6c-117.5,0-213.3,95.8-213.3,213.3S677.7,490,795.2,490s213.3-95.8,213.3-213.3
	S912.7,63.6,795.2,63.6z"/>
<path fill="#FCBF29" d="M1008.5,277c0,117.5-95.8,213.3-213.3,213.3V63.6C912.7,63.6,1008.5,159.5,1008.5,277z"/>
<path id="graoully" fill="#F5F5F5" d="M795.3,91.6c106.6,1.3,185.5,87.1,185.1,186.2c-0.3,102-83.6,184.8-185.8,184.6
	c-102-0.1-185.2-83.5-184.7-185.5C610.4,174.6,691.7,92.6,795.3,91.6z M734.5,424.3c66,29.9,155.4,8.7,199.4-65.5
	c43.2-73,21.7-166-49.2-213.8c-68.9-46.5-163.8-30.4-214.4,36.4c-50.2,66.1-37.3,152.1,5.2,198.7c6.7-6.7,0.9-12.9-0.9-19.4
	c4.5,0.5,8.5,1.4,12.7,1.6c6.3,0.1,9.7-3.9,8.8-10.1c-0.3-2.5-1.4-4.8-2.3-7.1c-0.5-1.4-1.4-2.8-2.2-4.5c3.9,0,7,0.4,10.1-0.1
	c8.7-1.4,10.5-4.4,8.3-12.9c-0.8-2.7-1.7-5.4-2.5-8.4c2.1,0,3.8,0,5.4,0c10.7,0.1,16.3-4.7,16.7-15.1c0.4-12.2-1.4-24.1-4-36.6
	c-3.2,2.2-6,4.3-9.3,6.6c-0.8-12.3-10.9-10-18-12.2c3.2-7.9,3-9.4-4-14.1c-5.2-3.5-10.4-6.7-16.6-10.7c16.3-4,30.9-2.7,45.3,4.5
	c1-3.2,1.6-6.5,2.8-8.9c1.9-3.6,0.9-6.1-1.7-8.9c-12.6-14-28.2-22.6-45.7-28.9c-1.7-0.6-3.2-1-5.2-1.8c0.8-0.8,1-1,1.2-1
	c25-3.8,48.7,0.3,70.8,12.6c1,0.6,2.7,1.2,3.6,0.8c6.1-2.8,11.9-6.1,17.6-8.9c-0.8-22.1-12.6-38.3-26.1-53.8
	c6.7,2.1,13.1,4.5,19,7.5c17.6,8.7,30.5,21.9,37.9,40.2c2.2,5.4,8.8,7,13.3,3.6c5.8-4.5,12-8.5,18.2-12.7c1-0.8,2.7-0.8,5-1.6
	c-1,2.3-1.7,3.5-2.1,4.7c-2.3,5.8-4.8,11.4-6.7,17.3c-1.4,4.4-0.3,6.3,3.9,8.5c0.8,0.4,1.3,0.9,3.2,2.2c-2.5,1.3-4.4,2.3-6,3.1
	c2.6,5.7,4.3,10.5,6.7,14.9c1.6,2.7,6.3,3.6,3.1,8c-0.1,0.1,0.5,1.2,1,1.7c4.8,3.8,8.9,8.5,14.4,10.7c11.8,5.2,24.2,9.2,36.4,14
	c3.5,1.4,6.3,0.8,9.6-0.6c5.6-2.5,11.1-4.9,17.1-6.1c16.2-3.5,28.5,8.9,25.4,25.1c-3.8,19.8-16.4,31.7-34.6,38.8
	c-1,0.4-2.3,0.9-3.5,1.4c0,0.3,0.1,0.6,0.1,0.9c8.3,1.4,16.4,3,24.8,4.4c0,0.1,0,0.5,0,0.8c-4,0.9-8,1.9-12.4,3
	c2.2,2.1,4,3.9,5.8,5.6c-9.4-3.2-18.2-7.1-27-11.4c-3.6-1.7-7-2.1-10.4,0.8c-1.3,1-2.7,2.1-4.3,2.7c-2.1,0.8-4.4,1.3-6.6,1.9
	c-0.5-2.3-1-4.7-1.7-7c-0.1-0.3-0.3-0.6-0.3-0.6c-3.9-2.7-6.6-0.8-9.6,1.4c-1.6,1-4,0.8-6.1,1.2c-0.1-1.7-0.5-3.5-0.8-5.2
	c-0.1-0.6,0.1-1.3,0.1-1.9c-2.5-2.1-4.8-2.3-7.5-1c-1.9,0.9-4,1.6-6.1,2.2c-2.5,0.8-3.6-0.3-3.6-2.7c0-1-0.1-2.1,0.1-3
	c0.4-2.5-0.1-3.9-2.7-5.2c-2.3-1.3-3.9-1.2-5.8,0.6c-0.8,0.8-1.9,1.4-2.8,2.1c-2.1,1.3-3.9,1-3.9-1.7c-0.1-3.5-2.2-3.6-4.8-3.6
	c-4.3,0.1-8.4,0.1-12.7,0.5c-11.1,0.8-21.4,4.7-28.9,12.8c-8.5,9.3-14.5,20.8-18.4,32.7C748.3,376.3,741.7,400.2,734.5,424.3z"/>
</svg>
