<?xml version="1.0" encoding="utf-8"?>
<!-- Generator: Adobe Illustrator 18.0.0, SVG Export Plug-In . SVG Version: 6.00 Build 0)  -->
<!DOCTYPE svg PUBLIC "-//W3C//DTD SVG 1.1//EN" "http://www.w3.org/Graphics/SVG/1.1/DTD/svg11.dtd">
<svg version="1.1" id="Capa_1" xmlns="http://www.w3.org/2000/svg"  x="0px" y="0px"
	 viewBox="315.2 63.6 329.6 432.7" enable-background="new 315.2 63.6 329.6 432.7" xml:space="preserve">
<path fill="#FD003A" d="M556.1,347.6H403.9c-7.1,0-12.7,5.6-12.7,12.7v123.4c0,4.6,2.5,8.8,6.6,11.2c4.3,2.3,9.1,2.1,13.2-0.5
	l68.9-46.2l68.9,46.2c4,2.5,8.9,2.8,13.2,0.5c4-2.3,6.6-6.6,6.6-11.2V360.3C568.7,353.2,563.2,347.6,556.1,347.6z"/>
<path fill="#FEDB41" d="M480,63.6c-90.8,0-164.8,74-164.8,164.8s74,164.7,164.8,164.7s164.8-74,164.8-164.8S570.8,63.6,480,63.6z"/>
<path fill="#FCBF29" d="M644.8,228.5c0,90.8-74,164.8-164.8,164.8V63.6C570.8,63.6,644.8,137.7,644.8,228.5z"/>
<path id="graoully" fill="#F5F5F5" d="M480.1,85.2c82.4,1,143.3,67.3,143,143.9c-0.2,78.8-64.6,142.8-143.6,142.6
	c-78.8-0.1-143.1-64.5-142.7-143.3C337.2,149.4,400,86,480.1,85.2z M433.1,342.3c51,23.1,120.1,6.7,154.1-50.6
	c33.4-56.4,16.8-128.3-38-165.2C496,90.6,422.6,103,383.5,154.6c-38.8,51.1-28.8,117.5,4,153.5c5.2-5.2,0.7-10-0.7-15
	c3.5,0.4,6.6,1.1,9.8,1.2c4.9,0.1,7.5-3,6.8-7.8c-0.2-1.9-1.1-3.7-1.8-5.5c-0.4-1.1-1.1-2.2-1.7-3.5c3,0,5.4,0.3,7.8-0.1
	c6.7-1.1,8.1-3.4,6.4-10c-0.6-2.1-1.3-4.2-1.9-6.5c1.6,0,2.9,0,4.2,0c8.3,0.1,12.6-3.6,12.9-11.7c0.3-9.4-1.1-18.6-3.1-28.3
	c-2.5,1.7-4.6,3.3-7.2,5.1c-0.6-9.5-8.4-7.7-13.9-9.4c2.5-6.1,2.3-7.3-3.1-10.9c-4-2.7-8-5.2-12.8-8.3c12.6-3.1,23.9-2.1,35,3.5
	c0.8-2.5,1.2-5,2.2-6.9c1.5-2.8,0.7-4.7-1.3-6.9c-9.7-10.8-21.8-17.5-35.3-22.3c-1.3-0.5-2.5-0.8-4-1.4c0.6-0.6,0.8-0.8,0.9-0.8
	c19.3-2.9,37.6,0.2,54.7,9.7c0.8,0.5,2.1,0.9,2.8,0.6c4.7-2.2,9.2-4.7,13.6-6.9c-0.6-17.1-9.7-29.6-20.2-41.6
	c5.2,1.6,10.1,3.5,14.7,5.8c13.6,6.7,23.6,16.9,29.3,31.1c1.7,4.2,6.8,5.4,10.3,2.8c4.5-3.5,9.3-6.6,14.1-9.8
	c0.8-0.6,2.1-0.6,3.9-1.2c-0.8,1.8-1.3,2.7-1.6,3.6c-1.8,4.5-3.7,8.8-5.2,13.4c-1.1,3.4-0.2,4.9,3,6.6c0.6,0.3,1,0.7,2.5,1.7
	c-1.9,1-3.4,1.8-4.6,2.4c2,4.4,3.3,8.1,5.2,11.5c1.2,2.1,4.9,2.8,2.4,6.2c-0.1,0.1,0.4,0.9,0.8,1.3c3.7,2.9,6.9,6.6,11.1,8.3
	c9.1,4,18.7,7.1,28.1,10.8c2.7,1.1,4.9,0.6,7.4-0.5c4.3-1.9,8.6-3.8,13.2-4.7c12.5-2.7,22,6.9,19.6,19.4
	c-2.9,15.3-12.7,24.5-26.7,30c-0.8,0.3-1.8,0.7-2.7,1.1c0,0.2,0.1,0.5,0.1,0.7c6.4,1.1,12.7,2.3,19.2,3.4c0,0.1,0,0.4,0,0.6
	c-3.1,0.7-6.2,1.5-9.6,2.3c1.7,1.6,3.1,3,4.5,4.3c-7.3-2.5-14.1-5.5-20.9-8.8c-2.8-1.3-5.4-1.6-8,0.6c-1,0.8-2.1,1.6-3.3,2.1
	c-1.6,0.6-3.4,1-5.1,1.5c-0.4-1.8-0.8-3.6-1.3-5.4c-0.1-0.2-0.2-0.5-0.2-0.5c-3-2.1-5.1-0.6-7.4,1.1c-1.2,0.8-3.1,0.6-4.7,0.9
	c-0.1-1.3-0.4-2.7-0.6-4c-0.1-0.5,0.1-1,0.1-1.5c-1.9-1.6-3.7-1.8-5.8-0.8c-1.5,0.7-3.1,1.2-4.7,1.7c-1.9,0.6-2.8-0.2-2.8-2.1
	c0-0.8-0.1-1.6,0.1-2.3c0.3-1.9-0.1-3-2.1-4c-1.8-1-3-0.9-4.5,0.5c-0.6,0.6-1.5,1.1-2.2,1.6c-1.6,1-3,0.8-3-1.3
	c-0.1-2.7-1.7-2.8-3.7-2.8c-3.3,0.1-6.5,0.1-9.8,0.4c-8.6,0.6-16.5,3.6-22.3,9.9c-6.6,7.2-11.2,16.1-14.2,25.3
	C443.8,305.2,438.7,323.7,433.1,342.3z"/>
</svg>
